<svg width="214" height="213" xmlns="http://www.w3.org/2000/svg" xmlns:xlink="http://www.w3.org/1999/xlink" xml:space="preserve" overflow="hidden"><defs><clipPath id="clip0"><rect x="533" y="253" width="214" height="213"/></clipPath></defs><g clip-path="url(#clip0)" transform="translate(-533 -253)"><path d="M663.632 308.909C676.857 312.217 687.298 322.385 690.984 335.549 694.67 348.711 691.037 362.846 681.463 372.579 671.891 382.311 657.851 386.146 644.682 382.625L644.692 382.59 634.399 379.804 641.054 355.052 651.495 357.877 651.49 357.893 652.885 358.168C656.685 358.656 660.537 357.35 663.27 354.57 666.394 351.393 667.58 346.78 666.376 342.483 665.173 338.187 661.765 334.868 657.451 333.788Z" fill="#FFFFFF" fill-rule="evenodd"/><path d="M614.669 309.184 659.403 308.91 652.541 334.352 639.987 334.352C637.437 339.185 629.74 369.915 624.342 392.347 621.141 408.761 609.34 410.265 592.784 409.855L613.639 334.625 586.403 334.625C591.716 319.701 597.289 311.281 614.669 309.184Z" fill="#FFFFFF" fill-rule="evenodd"/><path d="M533 359.5C533 300.682 580.906 253 640 253 699.094 253 747 300.682 747 359.5 747 418.318 699.094 466 640 466 580.906 466 533 418.318 533 359.5ZM554.796 359.5C554.796 406.281 592.943 444.204 640 444.204 687.057 444.204 725.204 406.281 725.204 359.5 725.204 312.72 687.057 274.796 640 274.796 592.943 274.796 554.796 312.72 554.796 359.5Z" fill="#FFFFFF" fill-rule="evenodd"/></g></svg>